# xmcd
#
# Track frame offsets: 
#        150
#        12047
#        22382
#        29665
#        39105
#        46885
#        60135
#        71750
#        80235
#        87040
#        99592
#        109137
#        120117
#        145545
#        158130
#        172412
#        179967
#
# Disc length: 2502 seconds
#
# Revision: 0
# Processed by: cddbd v1.4b42PL1 Copyright (c) Steve Scherf et al.
# Submitted via: ExactAudioCopy v0.90a11
#
DISCID=e009c411
DTITLE=Lead Belly - Bridging Lead Belly
DYEAR=1900
DGENRE=
TTITLE0=Boll Weevil
TTITLE1=I'm Goin' Mother (aka Mama)
TTITLE2=Go Down, Ol' Hannah
TTITLE3=Prison Holler
TTITLE4=(Baby) Take a Whiff on Me
TTITLE5=Irene (Good Night, Irene) (1)
TTITLE6=Jail-House Blues
TTITLE7=Old Reilly (In Them Long Hot Summer Days)
TTITLE8=Ox Driver's Song (Whoa, Back, Buck!) (1)
TTITLE9=Ox Driver's Song (Whoa, Back, Buck!) (2)
TTITLE10=Julie Ann Johnson
TTITLE11=Governor O.K. Allen (aka Angola Blues)
TTITLE12=Frankie and Albert
TTITLE13=St. Louis Blues
TTITLE14=We're in the Same Boat, Brother
TTITLE15=Salt Lake City (New York City)
TTITLE16=Irene (Good Night, Irene) (2)
EXTD=
EXTT0=
EXTT1=
EXTT2=
EXTT3=
EXTT4=
EXTT5=
EXTT6=
EXTT7=
EXTT8=
EXTT9=
EXTT10=
EXTT11=
EXTT12=
EXTT13=
EXTT14=
EXTT15=
EXTT16=
PLAYORDER=
